<svg width="1713" height="1134" viewBox="0 0 1713 1134" fill="none" xmlns="http://www.w3.org/2000/svg">
<g clip-path="url(#clip0_25_376)">
<mask id="path-1-inside-1_25_376" fill="white">
<path d="M6 0H195V189H6V0Z"/>
</mask>
<path d="M6 0V-0.5H5V0H6ZM195 0H195.5V-0.5H195V0ZM195 189V189.5H195.5V189H195ZM6 189H5V189.5H6V189ZM6 0V0.5H195V0V-0.5H6V0ZM195 0H194.5V189H195H195.5V0H195ZM195 189V188.5H6V189V189.5H195V189ZM6 189H7V0H6H5V189H6Z" fill="#E6E6E6" mask="url(#path-1-inside-1_25_376)"/>
<mask id="path-3-inside-2_25_376" fill="white">
<path d="M6 189H195V378H6V189Z"/>
</mask>
<path d="M6 189V188.5H5V189H6ZM195 189H195.5V188.5H195V189ZM195 378V378.5H195.5V378H195ZM6 378H5V378.5H6V378ZM6 189V189.5H195V189V188.5H6V189ZM195 189H194.5V378H195H195.5V189H195ZM195 378V377.5H6V378V378.5H195V378ZM6 378H7V189H6H5V378H6Z" fill="#E6E6E6" mask="url(#path-3-inside-2_25_376)"/>
<mask id="path-5-inside-3_25_376" fill="white">
<path d="M6 378H195V567H6V378Z"/>
</mask>
<path d="M6 378V377.5H5V378H6ZM195 378H195.5V377.5H195V378ZM195 567V567.5H195.5V567H195ZM6 567H5V567.5H6V567ZM6 378V378.5H195V378V377.5H6V378ZM195 378H194.5V567H195H195.5V378H195ZM195 567V566.5H6V567V567.5H195V567ZM6 567H7V378H6H5V567H6Z" fill="#E6E6E6" mask="url(#path-5-inside-3_25_376)"/>
<mask id="path-7-inside-4_25_376" fill="white">
<path d="M6 567H195V756H6V567Z"/>
</mask>
<path d="M6 567V566.5H5V567H6ZM195 567H195.5V566.5H195V567ZM195 756V756.5H195.5V756H195ZM6 756H5V756.5H6V756ZM6 567V567.5H195V567V566.5H6V567ZM195 567H194.5V756H195H195.5V567H195ZM195 756V755.5H6V756V756.5H195V756ZM6 756H7V567H6H5V756H6Z" fill="#E6E6E6" mask="url(#path-7-inside-4_25_376)"/>
<mask id="path-9-inside-5_25_376" fill="white">
<path d="M6 756H195V945H6V756Z"/>
</mask>
<path d="M6 756V755.5H5V756H6ZM195 756H195.5V755.5H195V756ZM195 945V945.5H195.5V945H195ZM6 945H5V945.5H6V945ZM6 756V756.5H195V756V755.5H6V756ZM195 756H194.5V945H195H195.5V756H195ZM195 945V944.5H6V945V945.5H195V945ZM6 945H7V756H6H5V945H6Z" fill="#E6E6E6" mask="url(#path-9-inside-5_25_376)"/>
<mask id="path-11-inside-6_25_376" fill="white">
<path d="M6 945H195V1134H6V945Z"/>
</mask>
<path d="M6 945V944.5H5V945H6ZM195 945H195.5V944.5H195V945ZM195 1134V1134.5H195.5V1134H195ZM6 1134H5V1134.5H6V1134ZM6 945V945.5H195V945V944.5H6V945ZM195 945H194.5V1134H195H195.5V945H195ZM195 1134V1133.5H6V1134V1134.5H195V1134ZM6 1134H7V945H6H5V1134H6Z" fill="#E6E6E6" mask="url(#path-11-inside-6_25_376)"/>
<mask id="path-13-inside-7_25_376" fill="white">
<path d="M195 0H384V189H195V0Z"/>
</mask>
<path d="M195 0V-0.5H194V0H195ZM384 0H384.5V-0.5H384V0ZM384 189V189.5H384.5V189H384ZM195 189H194V189.5H195V189ZM195 0V0.5H384V0V-0.5H195V0ZM384 0H383.5V189H384H384.5V0H384ZM384 189V188.5H195V189V189.5H384V189ZM195 189H196V0H195H194V189H195Z" fill="#E6E6E6" mask="url(#path-13-inside-7_25_376)"/>
<mask id="path-15-inside-8_25_376" fill="white">
<path d="M195 189H384V378H195V189Z"/>
</mask>
<path d="M195 189V188.5H194V189H195ZM384 189H384.5V188.5H384V189ZM384 378V378.5H384.5V378H384ZM195 378H194V378.5H195V378ZM195 189V189.5H384V189V188.5H195V189ZM384 189H383.5V378H384H384.5V189H384ZM384 378V377.5H195V378V378.5H384V378ZM195 378H196V189H195H194V378H195Z" fill="#E6E6E6" mask="url(#path-15-inside-8_25_376)"/>
<mask id="path-17-inside-9_25_376" fill="white">
<path d="M195 378H384V567H195V378Z"/>
</mask>
<path d="M195 378V377.5H194V378H195ZM384 378H384.5V377.5H384V378ZM384 567V567.5H384.5V567H384ZM195 567H194V567.5H195V567ZM195 378V378.5H384V378V377.5H195V378ZM384 378H383.5V567H384H384.5V378H384ZM384 567V566.5H195V567V567.5H384V567ZM195 567H196V378H195H194V567H195Z" fill="#E6E6E6" mask="url(#path-17-inside-9_25_376)"/>
<mask id="path-19-inside-10_25_376" fill="white">
<path d="M195 567H384V756H195V567Z"/>
</mask>
<path d="M195 567V566.5H194V567H195ZM384 567H384.5V566.5H384V567ZM384 756V756.5H384.5V756H384ZM195 756H194V756.5H195V756ZM195 567V567.5H384V567V566.5H195V567ZM384 567H383.5V756H384H384.5V567H384ZM384 756V755.5H195V756V756.5H384V756ZM195 756H196V567H195H194V756H195Z" fill="#E6E6E6" mask="url(#path-19-inside-10_25_376)"/>
<mask id="path-21-inside-11_25_376" fill="white">
<path d="M195 756H384V945H195V756Z"/>
</mask>
<path d="M195 756V755.5H194V756H195ZM384 756H384.5V755.5H384V756ZM384 945V945.5H384.5V945H384ZM195 945H194V945.5H195V945ZM195 756V756.5H384V756V755.5H195V756ZM384 756H383.5V945H384H384.5V756H384ZM384 945V944.5H195V945V945.5H384V945ZM195 945H196V756H195H194V945H195Z" fill="#E6E6E6" mask="url(#path-21-inside-11_25_376)"/>
<mask id="path-23-inside-12_25_376" fill="white">
<path d="M195 945H384V1134H195V945Z"/>
</mask>
<path d="M195 945V944.5H194V945H195ZM384 945H384.5V944.5H384V945ZM384 1134V1134.5H384.5V1134H384ZM195 1134H194V1134.5H195V1134ZM195 945V945.5H384V945V944.5H195V945ZM384 945H383.5V1134H384H384.5V945H384ZM384 1134V1133.5H195V1134V1134.5H384V1134ZM195 1134H196V945H195H194V1134H195Z" fill="#E6E6E6" mask="url(#path-23-inside-12_25_376)"/>
<mask id="path-25-inside-13_25_376" fill="white">
<path d="M384 0H573V189H384V0Z"/>
</mask>
<path d="M384 0V-0.5H383V0H384ZM573 0H573.5V-0.5H573V0ZM573 189V189.5H573.5V189H573ZM384 189H383V189.5H384V189ZM384 0V0.5H573V0V-0.5H384V0ZM573 0H572.5V189H573H573.5V0H573ZM573 189V188.5H384V189V189.5H573V189ZM384 189H385V0H384H383V189H384Z" fill="#E6E6E6" mask="url(#path-25-inside-13_25_376)"/>
<mask id="path-27-inside-14_25_376" fill="white">
<path d="M384 189H573V378H384V189Z"/>
</mask>
<path d="M384 189V188.5H383V189H384ZM573 189H573.5V188.5H573V189ZM573 378V378.5H573.5V378H573ZM384 378H383V378.5H384V378ZM384 189V189.5H573V189V188.5H384V189ZM573 189H572.5V378H573H573.5V189H573ZM573 378V377.5H384V378V378.5H573V378ZM384 378H385V189H384H383V378H384Z" fill="#E6E6E6" mask="url(#path-27-inside-14_25_376)"/>
<mask id="path-29-inside-15_25_376" fill="white">
<path d="M384 378H573V567H384V378Z"/>
</mask>
<path d="M384 378V377.5H383V378H384ZM573 378H573.5V377.5H573V378ZM573 567V567.5H573.5V567H573ZM384 567H383V567.5H384V567ZM384 378V378.5H573V378V377.5H384V378ZM573 378H572.5V567H573H573.5V378H573ZM573 567V566.5H384V567V567.5H573V567ZM384 567H385V378H384H383V567H384Z" fill="#E6E6E6" mask="url(#path-29-inside-15_25_376)"/>
<mask id="path-31-inside-16_25_376" fill="white">
<path d="M384 567H573V756H384V567Z"/>
</mask>
<path d="M384 567V566.5H383V567H384ZM573 567H573.5V566.5H573V567ZM573 756V756.5H573.5V756H573ZM384 756H383V756.5H384V756ZM384 567V567.5H573V567V566.5H384V567ZM573 567H572.5V756H573H573.5V567H573ZM573 756V755.5H384V756V756.5H573V756ZM384 756H385V567H384H383V756H384Z" fill="#E6E6E6" mask="url(#path-31-inside-16_25_376)"/>
<mask id="path-33-inside-17_25_376" fill="white">
<path d="M384 756H573V945H384V756Z"/>
</mask>
<path d="M384 756V755.5H383V756H384ZM573 756H573.5V755.5H573V756ZM573 945V945.5H573.5V945H573ZM384 945H383V945.5H384V945ZM384 756V756.5H573V756V755.5H384V756ZM573 756H572.5V945H573H573.5V756H573ZM573 945V944.5H384V945V945.5H573V945ZM384 945H385V756H384H383V945H384Z" fill="#E6E6E6" mask="url(#path-33-inside-17_25_376)"/>
<mask id="path-35-inside-18_25_376" fill="white">
<path d="M384 945H573V1134H384V945Z"/>
</mask>
<path d="M384 945V944.5H383V945H384ZM573 945H573.5V944.5H573V945ZM573 1134V1134.5H573.5V1134H573ZM384 1134H383V1134.5H384V1134ZM384 945V945.5H573V945V944.5H384V945ZM573 945H572.5V1134H573H573.5V945H573ZM573 1134V1133.5H384V1134V1134.5H573V1134ZM384 1134H385V945H384H383V1134H384Z" fill="#E6E6E6" mask="url(#path-35-inside-18_25_376)"/>
<mask id="path-37-inside-19_25_376" fill="white">
<path d="M573 0H762V189H573V0Z"/>
</mask>
<path d="M573 0V-0.5H572V0H573ZM762 0H762.5V-0.5H762V0ZM762 189V189.5H762.5V189H762ZM573 189H572V189.5H573V189ZM573 0V0.5H762V0V-0.5H573V0ZM762 0H761.5V189H762H762.5V0H762ZM762 189V188.5H573V189V189.5H762V189ZM573 189H574V0H573H572V189H573Z" fill="#E6E6E6" mask="url(#path-37-inside-19_25_376)"/>
<mask id="path-39-inside-20_25_376" fill="white">
<path d="M573 189H762V378H573V189Z"/>
</mask>
<path d="M573 189V188.5H572V189H573ZM762 189H762.5V188.5H762V189ZM762 378V378.5H762.5V378H762ZM573 378H572V378.5H573V378ZM573 189V189.5H762V189V188.5H573V189ZM762 189H761.5V378H762H762.5V189H762ZM762 378V377.5H573V378V378.5H762V378ZM573 378H574V189H573H572V378H573Z" fill="#E6E6E6" mask="url(#path-39-inside-20_25_376)"/>
<mask id="path-41-inside-21_25_376" fill="white">
<path d="M573 378H762V567H573V378Z"/>
</mask>
<path d="M573 378V377.5H572V378H573ZM762 378H762.5V377.5H762V378ZM762 567V567.5H762.5V567H762ZM573 567H572V567.5H573V567ZM573 378V378.5H762V378V377.5H573V378ZM762 378H761.5V567H762H762.5V378H762ZM762 567V566.5H573V567V567.5H762V567ZM573 567H574V378H573H572V567H573Z" fill="#E6E6E6" mask="url(#path-41-inside-21_25_376)"/>
<mask id="path-43-inside-22_25_376" fill="white">
<path d="M573 567H762V756H573V567Z"/>
</mask>
<path d="M573 567V566.5H572V567H573ZM762 567H762.5V566.5H762V567ZM762 756V756.5H762.5V756H762ZM573 756H572V756.5H573V756ZM573 567V567.5H762V567V566.5H573V567ZM762 567H761.5V756H762H762.5V567H762ZM762 756V755.5H573V756V756.5H762V756ZM573 756H574V567H573H572V756H573Z" fill="#E6E6E6" mask="url(#path-43-inside-22_25_376)"/>
<mask id="path-45-inside-23_25_376" fill="white">
<path d="M573 756H762V945H573V756Z"/>
</mask>
<path d="M573 756V755.5H572V756H573ZM762 756H762.5V755.5H762V756ZM762 945V945.5H762.5V945H762ZM573 945H572V945.5H573V945ZM573 756V756.5H762V756V755.5H573V756ZM762 756H761.5V945H762H762.5V756H762ZM762 945V944.5H573V945V945.5H762V945ZM573 945H574V756H573H572V945H573Z" fill="#E6E6E6" mask="url(#path-45-inside-23_25_376)"/>
<mask id="path-47-inside-24_25_376" fill="white">
<path d="M573 945H762V1134H573V945Z"/>
</mask>
<path d="M573 945V944.5H572V945H573ZM762 945H762.5V944.5H762V945ZM762 1134V1134.5H762.5V1134H762ZM573 1134H572V1134.5H573V1134ZM573 945V945.5H762V945V944.5H573V945ZM762 945H761.5V1134H762H762.5V945H762ZM762 1134V1133.5H573V1134V1134.5H762V1134ZM573 1134H574V945H573H572V1134H573Z" fill="#E6E6E6" mask="url(#path-47-inside-24_25_376)"/>
<mask id="path-49-inside-25_25_376" fill="white">
<path d="M762 0H951V189H762V0Z"/>
</mask>
<path d="M762 0V-0.5H761V0H762ZM951 0H951.5V-0.5H951V0ZM951 189V189.5H951.5V189H951ZM762 189H761V189.5H762V189ZM762 0V0.5H951V0V-0.5H762V0ZM951 0H950.5V189H951H951.5V0H951ZM951 189V188.5H762V189V189.5H951V189ZM762 189H763V0H762H761V189H762Z" fill="#E6E6E6" mask="url(#path-49-inside-25_25_376)"/>
<mask id="path-51-inside-26_25_376" fill="white">
<path d="M762 189H951V378H762V189Z"/>
</mask>
<path d="M762 189V188.5H761V189H762ZM951 189H951.5V188.5H951V189ZM951 378V378.5H951.5V378H951ZM762 378H761V378.5H762V378ZM762 189V189.5H951V189V188.5H762V189ZM951 189H950.5V378H951H951.5V189H951ZM951 378V377.5H762V378V378.5H951V378ZM762 378H763V189H762H761V378H762Z" fill="#E6E6E6" mask="url(#path-51-inside-26_25_376)"/>
<mask id="path-53-inside-27_25_376" fill="white">
<path d="M762 378H951V567H762V378Z"/>
</mask>
<path d="M762 378V377.5H761V378H762ZM951 378H951.5V377.5H951V378ZM951 567V567.5H951.5V567H951ZM762 567H761V567.5H762V567ZM762 378V378.5H951V378V377.5H762V378ZM951 378H950.5V567H951H951.5V378H951ZM951 567V566.5H762V567V567.5H951V567ZM762 567H763V378H762H761V567H762Z" fill="#E6E6E6" mask="url(#path-53-inside-27_25_376)"/>
<mask id="path-55-inside-28_25_376" fill="white">
<path d="M762 567H951V756H762V567Z"/>
</mask>
<path d="M762 567V566.5H761V567H762ZM951 567H951.5V566.5H951V567ZM951 756V756.5H951.5V756H951ZM762 756H761V756.5H762V756ZM762 567V567.5H951V567V566.5H762V567ZM951 567H950.5V756H951H951.5V567H951ZM951 756V755.5H762V756V756.5H951V756ZM762 756H763V567H762H761V756H762Z" fill="#E6E6E6" mask="url(#path-55-inside-28_25_376)"/>
<mask id="path-57-inside-29_25_376" fill="white">
<path d="M762 756H951V945H762V756Z"/>
</mask>
<path d="M762 756V755.5H761V756H762ZM951 756H951.5V755.5H951V756ZM951 945V945.5H951.5V945H951ZM762 945H761V945.5H762V945ZM762 756V756.5H951V756V755.5H762V756ZM951 756H950.5V945H951H951.5V756H951ZM951 945V944.5H762V945V945.5H951V945ZM762 945H763V756H762H761V945H762Z" fill="#E6E6E6" mask="url(#path-57-inside-29_25_376)"/>
<mask id="path-59-inside-30_25_376" fill="white">
<path d="M762 945H951V1134H762V945Z"/>
</mask>
<path d="M762 945V944.5H761V945H762ZM951 945H951.5V944.5H951V945ZM951 1134V1134.5H951.5V1134H951ZM762 1134H761V1134.5H762V1134ZM762 945V945.5H951V945V944.5H762V945ZM951 945H950.5V1134H951H951.5V945H951ZM951 1134V1133.5H762V1134V1134.5H951V1134ZM762 1134H763V945H762H761V1134H762Z" fill="#E6E6E6" mask="url(#path-59-inside-30_25_376)"/>
<mask id="path-61-inside-31_25_376" fill="white">
<path d="M951 0H1140V189H951V0Z"/>
</mask>
<path d="M951 0V-0.5H950V0H951ZM1140 0H1140.5V-0.5H1140V0ZM1140 189V189.5H1140.5V189H1140ZM951 189H950V189.5H951V189ZM951 0V0.5H1140V0V-0.5H951V0ZM1140 0H1139.5V189H1140H1140.5V0H1140ZM1140 189V188.5H951V189V189.5H1140V189ZM951 189H952V0H951H950V189H951Z" fill="#E6E6E6" mask="url(#path-61-inside-31_25_376)"/>
<mask id="path-63-inside-32_25_376" fill="white">
<path d="M951 189H1140V378H951V189Z"/>
</mask>
<path d="M951 189V188.5H950V189H951ZM1140 189H1140.5V188.5H1140V189ZM1140 378V378.5H1140.5V378H1140ZM951 378H950V378.5H951V378ZM951 189V189.5H1140V189V188.5H951V189ZM1140 189H1139.5V378H1140H1140.5V189H1140ZM1140 378V377.5H951V378V378.5H1140V378ZM951 378H952V189H951H950V378H951Z" fill="#E6E6E6" mask="url(#path-63-inside-32_25_376)"/>
<mask id="path-65-inside-33_25_376" fill="white">
<path d="M951 378H1140V567H951V378Z"/>
</mask>
<path d="M951 378V377.5H950V378H951ZM1140 378H1140.5V377.5H1140V378ZM1140 567V567.5H1140.5V567H1140ZM951 567H950V567.5H951V567ZM951 378V378.5H1140V378V377.5H951V378ZM1140 378H1139.5V567H1140H1140.5V378H1140ZM1140 567V566.5H951V567V567.5H1140V567ZM951 567H952V378H951H950V567H951Z" fill="#E6E6E6" mask="url(#path-65-inside-33_25_376)"/>
<mask id="path-67-inside-34_25_376" fill="white">
<path d="M951 567H1140V756H951V567Z"/>
</mask>
<path d="M951 567V566.5H950V567H951ZM1140 567H1140.5V566.5H1140V567ZM1140 756V756.5H1140.5V756H1140ZM951 756H950V756.5H951V756ZM951 567V567.5H1140V567V566.5H951V567ZM1140 567H1139.5V756H1140H1140.5V567H1140ZM1140 756V755.5H951V756V756.5H1140V756ZM951 756H952V567H951H950V756H951Z" fill="#E6E6E6" mask="url(#path-67-inside-34_25_376)"/>
<mask id="path-69-inside-35_25_376" fill="white">
<path d="M951 756H1140V945H951V756Z"/>
</mask>
<path d="M951 756V755.5H950V756H951ZM1140 756H1140.5V755.5H1140V756ZM1140 945V945.5H1140.5V945H1140ZM951 945H950V945.5H951V945ZM951 756V756.5H1140V756V755.5H951V756ZM1140 756H1139.5V945H1140H1140.5V756H1140ZM1140 945V944.5H951V945V945.5H1140V945ZM951 945H952V756H951H950V945H951Z" fill="#E6E6E6" mask="url(#path-69-inside-35_25_376)"/>
<mask id="path-71-inside-36_25_376" fill="white">
<path d="M951 945H1140V1134H951V945Z"/>
</mask>
<path d="M951 945V944.5H950V945H951ZM1140 945H1140.5V944.5H1140V945ZM1140 1134V1134.5H1140.5V1134H1140ZM951 1134H950V1134.5H951V1134ZM951 945V945.5H1140V945V944.5H951V945ZM1140 945H1139.5V1134H1140H1140.5V945H1140ZM1140 1134V1133.5H951V1134V1134.5H1140V1134ZM951 1134H952V945H951H950V1134H951Z" fill="#E6E6E6" mask="url(#path-71-inside-36_25_376)"/>
<mask id="path-73-inside-37_25_376" fill="white">
<path d="M1140 0H1329V189H1140V0Z"/>
</mask>
<path d="M1140 0V-0.5H1139V0H1140ZM1329 0H1329.5V-0.5H1329V0ZM1329 189V189.5H1329.5V189H1329ZM1140 189H1139V189.5H1140V189ZM1140 0V0.5H1329V0V-0.5H1140V0ZM1329 0H1328.5V189H1329H1329.5V0H1329ZM1329 189V188.5H1140V189V189.5H1329V189ZM1140 189H1141V0H1140H1139V189H1140Z" fill="#E6E6E6" mask="url(#path-73-inside-37_25_376)"/>
<mask id="path-75-inside-38_25_376" fill="white">
<path d="M1140 189H1329V378H1140V189Z"/>
</mask>
<path d="M1140 189V188.5H1139V189H1140ZM1329 189H1329.5V188.5H1329V189ZM1329 378V378.5H1329.5V378H1329ZM1140 378H1139V378.5H1140V378ZM1140 189V189.5H1329V189V188.5H1140V189ZM1329 189H1328.5V378H1329H1329.5V189H1329ZM1329 378V377.5H1140V378V378.5H1329V378ZM1140 378H1141V189H1140H1139V378H1140Z" fill="#E6E6E6" mask="url(#path-75-inside-38_25_376)"/>
<mask id="path-77-inside-39_25_376" fill="white">
<path d="M1140 378H1329V567H1140V378Z"/>
</mask>
<path d="M1140 378V377.5H1139V378H1140ZM1329 378H1329.5V377.5H1329V378ZM1329 567V567.5H1329.5V567H1329ZM1140 567H1139V567.5H1140V567ZM1140 378V378.5H1329V378V377.5H1140V378ZM1329 378H1328.5V567H1329H1329.5V378H1329ZM1329 567V566.5H1140V567V567.5H1329V567ZM1140 567H1141V378H1140H1139V567H1140Z" fill="#E6E6E6" mask="url(#path-77-inside-39_25_376)"/>
<mask id="path-79-inside-40_25_376" fill="white">
<path d="M1140 567H1329V756H1140V567Z"/>
</mask>
<path d="M1140 567V566.5H1139V567H1140ZM1329 567H1329.5V566.5H1329V567ZM1329 756V756.5H1329.5V756H1329ZM1140 756H1139V756.5H1140V756ZM1140 567V567.5H1329V567V566.5H1140V567ZM1329 567H1328.5V756H1329H1329.5V567H1329ZM1329 756V755.5H1140V756V756.5H1329V756ZM1140 756H1141V567H1140H1139V756H1140Z" fill="#E6E6E6" mask="url(#path-79-inside-40_25_376)"/>
<mask id="path-81-inside-41_25_376" fill="white">
<path d="M1140 756H1329V945H1140V756Z"/>
</mask>
<path d="M1140 756V755.5H1139V756H1140ZM1329 756H1329.5V755.5H1329V756ZM1329 945V945.5H1329.5V945H1329ZM1140 945H1139V945.5H1140V945ZM1140 756V756.5H1329V756V755.5H1140V756ZM1329 756H1328.5V945H1329H1329.5V756H1329ZM1329 945V944.5H1140V945V945.5H1329V945ZM1140 945H1141V756H1140H1139V945H1140Z" fill="#E6E6E6" mask="url(#path-81-inside-41_25_376)"/>
<mask id="path-83-inside-42_25_376" fill="white">
<path d="M1140 945H1329V1134H1140V945Z"/>
</mask>
<path d="M1140 945V944.5H1139V945H1140ZM1329 945H1329.5V944.5H1329V945ZM1329 1134V1134.5H1329.5V1134H1329ZM1140 1134H1139V1134.5H1140V1134ZM1140 945V945.5H1329V945V944.5H1140V945ZM1329 945H1328.5V1134H1329H1329.5V945H1329ZM1329 1134V1133.5H1140V1134V1134.5H1329V1134ZM1140 1134H1141V945H1140H1139V1134H1140Z" fill="#E6E6E6" mask="url(#path-83-inside-42_25_376)"/>
<mask id="path-85-inside-43_25_376" fill="white">
<path d="M1329 0H1518V189H1329V0Z"/>
</mask>
<path d="M1329 0V-0.5H1328V0H1329ZM1518 0H1518.5V-0.5H1518V0ZM1518 189V189.5H1518.5V189H1518ZM1329 189H1328V189.5H1329V189ZM1329 0V0.5H1518V0V-0.5H1329V0ZM1518 0H1517.5V189H1518H1518.5V0H1518ZM1518 189V188.5H1329V189V189.5H1518V189ZM1329 189H1330V0H1329H1328V189H1329Z" fill="#E6E6E6" mask="url(#path-85-inside-43_25_376)"/>
<mask id="path-87-inside-44_25_376" fill="white">
<path d="M1329 189H1518V378H1329V189Z"/>
</mask>
<path d="M1329 189V188.5H1328V189H1329ZM1518 189H1518.5V188.5H1518V189ZM1518 378V378.5H1518.5V378H1518ZM1329 378H1328V378.5H1329V378ZM1329 189V189.5H1518V189V188.5H1329V189ZM1518 189H1517.5V378H1518H1518.5V189H1518ZM1518 378V377.5H1329V378V378.5H1518V378ZM1329 378H1330V189H1329H1328V378H1329Z" fill="#E6E6E6" mask="url(#path-87-inside-44_25_376)"/>
<mask id="path-89-inside-45_25_376" fill="white">
<path d="M1329 378H1518V567H1329V378Z"/>
</mask>
<path d="M1329 378V377.5H1328V378H1329ZM1518 378H1518.5V377.5H1518V378ZM1518 567V567.5H1518.5V567H1518ZM1329 567H1328V567.5H1329V567ZM1329 378V378.5H1518V378V377.5H1329V378ZM1518 378H1517.5V567H1518H1518.5V378H1518ZM1518 567V566.5H1329V567V567.5H1518V567ZM1329 567H1330V378H1329H1328V567H1329Z" fill="#E6E6E6" mask="url(#path-89-inside-45_25_376)"/>
<mask id="path-91-inside-46_25_376" fill="white">
<path d="M1329 567H1518V756H1329V567Z"/>
</mask>
<path d="M1329 567V566.5H1328V567H1329ZM1518 567H1518.5V566.5H1518V567ZM1518 756V756.5H1518.5V756H1518ZM1329 756H1328V756.5H1329V756ZM1329 567V567.5H1518V567V566.5H1329V567ZM1518 567H1517.5V756H1518H1518.5V567H1518ZM1518 756V755.5H1329V756V756.5H1518V756ZM1329 756H1330V567H1329H1328V756H1329Z" fill="#E6E6E6" mask="url(#path-91-inside-46_25_376)"/>
<mask id="path-93-inside-47_25_376" fill="white">
<path d="M1329 756H1518V945H1329V756Z"/>
</mask>
<path d="M1329 756V755.5H1328V756H1329ZM1518 756H1518.5V755.5H1518V756ZM1518 945V945.5H1518.5V945H1518ZM1329 945H1328V945.5H1329V945ZM1329 756V756.5H1518V756V755.5H1329V756ZM1518 756H1517.5V945H1518H1518.5V756H1518ZM1518 945V944.5H1329V945V945.5H1518V945ZM1329 945H1330V756H1329H1328V945H1329Z" fill="#E6E6E6" mask="url(#path-93-inside-47_25_376)"/>
<mask id="path-95-inside-48_25_376" fill="white">
<path d="M1329 945H1518V1134H1329V945Z"/>
</mask>
<path d="M1329 945V944.5H1328V945H1329ZM1518 945H1518.5V944.5H1518V945ZM1518 1134V1134.5H1518.5V1134H1518ZM1329 1134H1328V1134.5H1329V1134ZM1329 945V945.5H1518V945V944.5H1329V945ZM1518 945H1517.5V1134H1518H1518.5V945H1518ZM1518 1134V1133.5H1329V1134V1134.5H1518V1134ZM1329 1134H1330V945H1329H1328V1134H1329Z" fill="#E6E6E6" mask="url(#path-95-inside-48_25_376)"/>
<mask id="path-97-inside-49_25_376" fill="white">
<path d="M1518 0H1707V189H1518V0Z"/>
</mask>
<path d="M1518 0V-0.5H1517V0H1518ZM1707 0H1708V-0.5H1707V0ZM1707 189V189.5H1708V189H1707ZM1518 189H1517V189.5H1518V189ZM1518 0V0.5H1707V0V-0.5H1518V0ZM1707 0H1706V189H1707H1708V0H1707ZM1707 189V188.5H1518V189V189.5H1707V189ZM1518 189H1519V0H1518H1517V189H1518Z" fill="#E6E6E6" mask="url(#path-97-inside-49_25_376)"/>
<mask id="path-99-inside-50_25_376" fill="white">
<path d="M1518 189H1707V378H1518V189Z"/>
</mask>
<path d="M1518 189V188.5H1517V189H1518ZM1707 189H1708V188.5H1707V189ZM1707 378V378.5H1708V378H1707ZM1518 378H1517V378.5H1518V378ZM1518 189V189.5H1707V189V188.5H1518V189ZM1707 189H1706V378H1707H1708V189H1707ZM1707 378V377.5H1518V378V378.5H1707V378ZM1518 378H1519V189H1518H1517V378H1518Z" fill="#E6E6E6" mask="url(#path-99-inside-50_25_376)"/>
<mask id="path-101-inside-51_25_376" fill="white">
<path d="M1518 378H1707V567H1518V378Z"/>
</mask>
<path d="M1518 378V377.5H1517V378H1518ZM1707 378H1708V377.5H1707V378ZM1707 567V567.5H1708V567H1707ZM1518 567H1517V567.5H1518V567ZM1518 378V378.5H1707V378V377.5H1518V378ZM1707 378H1706V567H1707H1708V378H1707ZM1707 567V566.5H1518V567V567.5H1707V567ZM1518 567H1519V378H1518H1517V567H1518Z" fill="#E6E6E6" mask="url(#path-101-inside-51_25_376)"/>
<mask id="path-103-inside-52_25_376" fill="white">
<path d="M1518 567H1707V756H1518V567Z"/>
</mask>
<path d="M1518 567V566.5H1517V567H1518ZM1707 567H1708V566.5H1707V567ZM1707 756V756.5H1708V756H1707ZM1518 756H1517V756.5H1518V756ZM1518 567V567.5H1707V567V566.5H1518V567ZM1707 567H1706V756H1707H1708V567H1707ZM1707 756V755.5H1518V756V756.5H1707V756ZM1518 756H1519V567H1518H1517V756H1518Z" fill="#E6E6E6" mask="url(#path-103-inside-52_25_376)"/>
<mask id="path-105-inside-53_25_376" fill="white">
<path d="M1518 756H1707V945H1518V756Z"/>
</mask>
<path d="M1518 756V755.5H1517V756H1518ZM1707 756H1708V755.5H1707V756ZM1707 945V945.5H1708V945H1707ZM1518 945H1517V945.5H1518V945ZM1518 756V756.5H1707V756V755.5H1518V756ZM1707 756H1706V945H1707H1708V756H1707ZM1707 945V944.5H1518V945V945.5H1707V945ZM1518 945H1519V756H1518H1517V945H1518Z" fill="#E6E6E6" mask="url(#path-105-inside-53_25_376)"/>
<mask id="path-107-inside-54_25_376" fill="white">
<path d="M1518 945H1707V1134H1518V945Z"/>
</mask>
<path d="M1518 945V944.5H1517V945H1518ZM1707 945H1708V944.5H1707V945ZM1707 1134V1134.5H1708V1134H1707ZM1518 1134H1517V1134.5H1518V1134ZM1518 945V945.5H1707V945V944.5H1518V945ZM1707 945H1706V1134H1707H1708V945H1707ZM1707 1134V1133.5H1518V1134V1134.5H1707V1134ZM1518 1134H1519V945H1518H1517V1134H1518Z" fill="#E6E6E6" mask="url(#path-107-inside-54_25_376)"/>
<line x1="-750.646" y1="-0.280273" x2="384.427" y2="1134.65" stroke="#E6E6E6"/>
<line x1="-561.573" y1="-0.280273" x2="573.5" y2="1134.65" stroke="#E6E6E6"/>
<line x1="-372.5" y1="-0.280273" x2="762.573" y2="1134.65" stroke="#E6E6E6"/>
<line x1="-183.427" y1="-0.280273" x2="951.646" y2="1134.65" stroke="#E6E6E6"/>
<line x1="5.6465" y1="-0.280273" x2="1140.72" y2="1134.65" stroke="#E6E6E6"/>
<line x1="194.72" y1="-0.280273" x2="1329.79" y2="1134.65" stroke="#E6E6E6"/>
<line x1="383.793" y1="-0.280273" x2="1518.87" y2="1134.65" stroke="#E6E6E6"/>
<line x1="572.866" y1="-0.280273" x2="1707.94" y2="1134.65" stroke="#E6E6E6"/>
<line x1="761.939" y1="-0.280273" x2="1897.01" y2="1134.65" stroke="#E6E6E6"/>
<line x1="951.013" y1="-0.280273" x2="2086.09" y2="1134.65" stroke="#E6E6E6"/>
<line x1="1140.09" y1="-0.280273" x2="2275.16" y2="1134.65" stroke="#E6E6E6"/>
<line x1="1329.16" y1="-0.280273" x2="2464.23" y2="1134.65" stroke="#E6E6E6"/>
<line x1="1518.23" y1="-0.280273" x2="2653.31" y2="1134.65" stroke="#E6E6E6"/>
<line x1="-939.72" y1="-0.280273" x2="195.354" y2="1134.65" stroke="#E6E6E6"/>
</g>
<defs>
<clipPath id="clip0_25_376">
<rect width="1713" height="1134" fill="white"/>
</clipPath>
</defs>
</svg>
