<svg width="1754" height="961" viewBox="0 0 1754 961" fill="none" xmlns="http://www.w3.org/2000/svg">
<g clip-path="url(#clip0_24_5)">
<line x1="-948.003" y1="960.646" x2="12.9971" y2="-0.353608" stroke="#E6E6E6"/>
<line x1="-929.679" y1="960.646" x2="31.3212" y2="-0.353608" stroke="#E6E6E6"/>
<line x1="-911.355" y1="960.646" x2="49.6454" y2="-0.353608" stroke="#E6E6E6"/>
<line x1="-893.03" y1="960.646" x2="67.9695" y2="-0.353608" stroke="#E6E6E6"/>
<line x1="-874.706" y1="960.646" x2="86.2937" y2="-0.353608" stroke="#E6E6E6"/>
<line x1="-856.382" y1="960.646" x2="104.618" y2="-0.353608" stroke="#E6E6E6"/>
<line x1="-838.058" y1="960.646" x2="122.942" y2="-0.353608" stroke="#E6E6E6"/>
<line x1="-819.734" y1="960.646" x2="141.266" y2="-0.353608" stroke="#E6E6E6"/>
<line x1="-801.41" y1="960.646" x2="159.59" y2="-0.353608" stroke="#E6E6E6"/>
<line x1="-783.086" y1="960.646" x2="177.914" y2="-0.353608" stroke="#E6E6E6"/>
<line x1="-764.761" y1="960.646" x2="196.239" y2="-0.353608" stroke="#E6E6E6"/>
<line x1="-746.437" y1="960.646" x2="214.563" y2="-0.353608" stroke="#E6E6E6"/>
<line x1="-728.113" y1="960.646" x2="232.887" y2="-0.353608" stroke="#E6E6E6"/>
<line x1="-709.789" y1="960.646" x2="251.211" y2="-0.353608" stroke="#E6E6E6"/>
<line x1="-691.465" y1="960.646" x2="269.535" y2="-0.353608" stroke="#E6E6E6"/>
<line x1="-673.141" y1="960.646" x2="287.859" y2="-0.353608" stroke="#E6E6E6"/>
<line x1="-654.816" y1="960.646" x2="306.184" y2="-0.353608" stroke="#E6E6E6"/>
<line x1="-636.492" y1="960.646" x2="324.508" y2="-0.353608" stroke="#E6E6E6"/>
<line x1="-618.168" y1="960.646" x2="342.832" y2="-0.353608" stroke="#E6E6E6"/>
<line x1="-599.844" y1="960.646" x2="361.156" y2="-0.353608" stroke="#E6E6E6"/>
<line x1="-581.52" y1="960.646" x2="379.48" y2="-0.353608" stroke="#E6E6E6"/>
<line x1="-563.196" y1="960.646" x2="397.804" y2="-0.353608" stroke="#E6E6E6"/>
<line x1="-544.872" y1="960.646" x2="416.128" y2="-0.353608" stroke="#E6E6E6"/>
<line x1="-526.547" y1="960.646" x2="434.453" y2="-0.353608" stroke="#E6E6E6"/>
<line x1="-508.223" y1="960.646" x2="452.777" y2="-0.353608" stroke="#E6E6E6"/>
<line x1="-489.899" y1="960.646" x2="471.101" y2="-0.353608" stroke="#E6E6E6"/>
<line x1="-471.575" y1="960.646" x2="489.425" y2="-0.353608" stroke="#E6E6E6"/>
<line x1="-453.251" y1="960.646" x2="507.749" y2="-0.353608" stroke="#E6E6E6"/>
<line x1="-434.927" y1="960.646" x2="526.073" y2="-0.353608" stroke="#E6E6E6"/>
<line x1="-416.603" y1="960.646" x2="544.397" y2="-0.353608" stroke="#E6E6E6"/>
<line x1="-398.278" y1="960.646" x2="562.722" y2="-0.353608" stroke="#E6E6E6"/>
<line x1="-379.954" y1="960.646" x2="581.046" y2="-0.353608" stroke="#E6E6E6"/>
<line x1="-361.63" y1="960.646" x2="599.37" y2="-0.353608" stroke="#E6E6E6"/>
<line x1="-343.306" y1="960.646" x2="617.694" y2="-0.353608" stroke="#E6E6E6"/>
<line x1="-324.982" y1="960.646" x2="636.018" y2="-0.353608" stroke="#E6E6E6"/>
<line x1="-306.658" y1="960.646" x2="654.342" y2="-0.353608" stroke="#E6E6E6"/>
<line x1="-288.333" y1="960.646" x2="672.667" y2="-0.353608" stroke="#E6E6E6"/>
<line x1="-270.009" y1="960.646" x2="690.991" y2="-0.353608" stroke="#E6E6E6"/>
<line x1="-251.685" y1="960.646" x2="709.315" y2="-0.353608" stroke="#E6E6E6"/>
<line x1="-233.361" y1="960.646" x2="727.639" y2="-0.353608" stroke="#E6E6E6"/>
<line x1="-215.037" y1="960.646" x2="745.963" y2="-0.353608" stroke="#E6E6E6"/>
<line x1="-196.713" y1="960.646" x2="764.287" y2="-0.353608" stroke="#E6E6E6"/>
<line x1="-178.389" y1="960.646" x2="782.611" y2="-0.353608" stroke="#E6E6E6"/>
<line x1="-160.064" y1="960.646" x2="800.936" y2="-0.353608" stroke="#E6E6E6"/>
<line x1="-141.74" y1="960.646" x2="819.26" y2="-0.353608" stroke="#E6E6E6"/>
<line x1="-123.416" y1="960.646" x2="837.584" y2="-0.353608" stroke="#E6E6E6"/>
<line x1="-105.092" y1="960.646" x2="855.908" y2="-0.353608" stroke="#E6E6E6"/>
<line x1="-86.7677" y1="960.646" x2="874.232" y2="-0.353608" stroke="#E6E6E6"/>
<line x1="-68.4436" y1="960.646" x2="892.556" y2="-0.353608" stroke="#E6E6E6"/>
<line x1="-50.1194" y1="960.646" x2="910.881" y2="-0.353608" stroke="#E6E6E6"/>
<line x1="-31.7953" y1="960.646" x2="929.205" y2="-0.353608" stroke="#E6E6E6"/>
<line x1="-13.4712" y1="960.646" x2="947.529" y2="-0.353608" stroke="#E6E6E6"/>
<line x1="4.85299" y1="960.646" x2="965.853" y2="-0.353608" stroke="#E6E6E6"/>
<line x1="23.1771" y1="960.646" x2="984.177" y2="-0.353608" stroke="#E6E6E6"/>
<line x1="41.5013" y1="960.646" x2="1002.5" y2="-0.353608" stroke="#E6E6E6"/>
<line x1="59.8254" y1="960.646" x2="1020.83" y2="-0.353608" stroke="#E6E6E6"/>
<line x1="78.1496" y1="960.646" x2="1039.15" y2="-0.353608" stroke="#E6E6E6"/>
<line x1="96.4738" y1="960.646" x2="1057.47" y2="-0.353608" stroke="#E6E6E6"/>
<line x1="114.798" y1="960.646" x2="1075.8" y2="-0.353608" stroke="#E6E6E6"/>
<line x1="133.122" y1="960.646" x2="1094.12" y2="-0.353608" stroke="#E6E6E6"/>
<line x1="151.446" y1="960.646" x2="1112.45" y2="-0.353608" stroke="#E6E6E6"/>
<line x1="169.77" y1="960.646" x2="1130.77" y2="-0.353608" stroke="#E6E6E6"/>
<line x1="188.095" y1="960.646" x2="1149.09" y2="-0.353608" stroke="#E6E6E6"/>
<line x1="206.419" y1="960.646" x2="1167.42" y2="-0.353608" stroke="#E6E6E6"/>
<line x1="224.743" y1="960.646" x2="1185.74" y2="-0.353608" stroke="#E6E6E6"/>
<line x1="243.067" y1="960.646" x2="1204.07" y2="-0.353608" stroke="#E6E6E6"/>
<line x1="261.391" y1="960.646" x2="1222.39" y2="-0.353608" stroke="#E6E6E6"/>
<line x1="279.715" y1="960.646" x2="1240.72" y2="-0.353608" stroke="#E6E6E6"/>
<line x1="298.04" y1="960.646" x2="1259.04" y2="-0.353608" stroke="#E6E6E6"/>
<line x1="316.364" y1="960.646" x2="1277.36" y2="-0.353608" stroke="#E6E6E6"/>
<line x1="334.688" y1="960.646" x2="1295.69" y2="-0.353608" stroke="#E6E6E6"/>
<line x1="353.012" y1="960.646" x2="1314.01" y2="-0.353608" stroke="#E6E6E6"/>
<line x1="371.336" y1="960.646" x2="1332.34" y2="-0.353608" stroke="#E6E6E6"/>
<line x1="389.66" y1="960.646" x2="1350.66" y2="-0.353608" stroke="#E6E6E6"/>
<line x1="407.984" y1="960.646" x2="1368.98" y2="-0.353608" stroke="#E6E6E6"/>
<line x1="426.309" y1="960.646" x2="1387.31" y2="-0.353608" stroke="#E6E6E6"/>
<line x1="444.633" y1="960.646" x2="1405.63" y2="-0.353608" stroke="#E6E6E6"/>
<line x1="462.957" y1="960.646" x2="1423.96" y2="-0.353608" stroke="#E6E6E6"/>
<line x1="481.281" y1="960.646" x2="1442.28" y2="-0.353608" stroke="#E6E6E6"/>
<line x1="499.605" y1="960.646" x2="1460.61" y2="-0.353608" stroke="#E6E6E6"/>
<line x1="517.929" y1="960.646" x2="1478.93" y2="-0.353608" stroke="#E6E6E6"/>
<line x1="536.253" y1="960.646" x2="1497.25" y2="-0.353608" stroke="#E6E6E6"/>
<line x1="554.578" y1="960.646" x2="1515.58" y2="-0.353608" stroke="#E6E6E6"/>
<line x1="572.902" y1="960.646" x2="1533.9" y2="-0.353608" stroke="#E6E6E6"/>
<line x1="591.226" y1="960.646" x2="1552.23" y2="-0.353608" stroke="#E6E6E6"/>
<line x1="609.55" y1="960.646" x2="1570.55" y2="-0.353608" stroke="#E6E6E6"/>
<line x1="627.874" y1="960.646" x2="1588.87" y2="-0.353608" stroke="#E6E6E6"/>
<line x1="646.198" y1="960.646" x2="1607.2" y2="-0.353608" stroke="#E6E6E6"/>
<line x1="664.523" y1="960.646" x2="1625.52" y2="-0.353608" stroke="#E6E6E6"/>
<line x1="682.847" y1="960.646" x2="1643.85" y2="-0.353608" stroke="#E6E6E6"/>
<line x1="701.171" y1="960.646" x2="1662.17" y2="-0.353608" stroke="#E6E6E6"/>
<line x1="719.495" y1="960.646" x2="1680.49" y2="-0.353608" stroke="#E6E6E6"/>
<line x1="737.819" y1="960.646" x2="1698.82" y2="-0.353608" stroke="#E6E6E6"/>
<line x1="756.143" y1="960.646" x2="1717.14" y2="-0.353608" stroke="#E6E6E6"/>
<line x1="774.467" y1="960.646" x2="1735.47" y2="-0.353608" stroke="#E6E6E6"/>
<line x1="792.792" y1="960.646" x2="1753.79" y2="-0.353608" stroke="#E6E6E6"/>
<line x1="811.116" y1="960.646" x2="1772.12" y2="-0.353608" stroke="#E6E6E6"/>
<line x1="829.44" y1="960.646" x2="1790.44" y2="-0.353608" stroke="#E6E6E6"/>
<line x1="829.44" y1="960.646" x2="1790.44" y2="-0.353608" stroke="#E6E6E6"/>
<line x1="847.764" y1="960.646" x2="1808.76" y2="-0.353608" stroke="#E6E6E6"/>
<line x1="866.088" y1="960.646" x2="1827.09" y2="-0.353608" stroke="#E6E6E6"/>
<line x1="884.412" y1="960.646" x2="1845.41" y2="-0.353608" stroke="#E6E6E6"/>
<line x1="902.737" y1="960.646" x2="1863.74" y2="-0.353608" stroke="#E6E6E6"/>
<line x1="921.061" y1="960.646" x2="1882.06" y2="-0.353608" stroke="#E6E6E6"/>
<line x1="939.385" y1="960.646" x2="1900.38" y2="-0.353608" stroke="#E6E6E6"/>
<line x1="957.709" y1="960.646" x2="1918.71" y2="-0.353608" stroke="#E6E6E6"/>
<line x1="976.033" y1="960.646" x2="1937.03" y2="-0.353608" stroke="#E6E6E6"/>
<line x1="994.357" y1="960.646" x2="1955.36" y2="-0.353608" stroke="#E6E6E6"/>
<line x1="1012.68" y1="960.646" x2="1973.68" y2="-0.353608" stroke="#E6E6E6"/>
<line x1="1031.01" y1="960.646" x2="1992.01" y2="-0.353608" stroke="#E6E6E6"/>
<line x1="1049.33" y1="960.646" x2="2010.33" y2="-0.353608" stroke="#E6E6E6"/>
<line x1="1067.65" y1="960.646" x2="2028.65" y2="-0.353608" stroke="#E6E6E6"/>
<line x1="1085.98" y1="960.646" x2="2046.98" y2="-0.353608" stroke="#E6E6E6"/>
<line x1="1104.3" y1="960.646" x2="2065.3" y2="-0.353608" stroke="#E6E6E6"/>
<line x1="1122.63" y1="960.646" x2="2083.63" y2="-0.353608" stroke="#E6E6E6"/>
<line x1="1140.95" y1="960.646" x2="2101.95" y2="-0.353608" stroke="#E6E6E6"/>
<line x1="1159.27" y1="960.646" x2="2120.27" y2="-0.353608" stroke="#E6E6E6"/>
<line x1="1177.6" y1="960.646" x2="2138.6" y2="-0.353608" stroke="#E6E6E6"/>
<line x1="1195.92" y1="960.646" x2="2156.92" y2="-0.353608" stroke="#E6E6E6"/>
<line x1="1214.25" y1="960.646" x2="2175.25" y2="-0.353608" stroke="#E6E6E6"/>
<line x1="1232.57" y1="960.646" x2="2193.57" y2="-0.353608" stroke="#E6E6E6"/>
<line x1="1250.9" y1="960.646" x2="2211.9" y2="-0.353608" stroke="#E6E6E6"/>
<line x1="1269.22" y1="960.646" x2="2230.22" y2="-0.353608" stroke="#E6E6E6"/>
<line x1="1287.54" y1="960.646" x2="2248.54" y2="-0.353608" stroke="#E6E6E6"/>
<line x1="1305.87" y1="960.646" x2="2266.87" y2="-0.353608" stroke="#E6E6E6"/>
<line x1="1324.19" y1="960.646" x2="2285.19" y2="-0.353608" stroke="#E6E6E6"/>
<line x1="1342.52" y1="960.646" x2="2303.52" y2="-0.353608" stroke="#E6E6E6"/>
<line x1="1360.84" y1="960.646" x2="2321.84" y2="-0.353608" stroke="#E6E6E6"/>
<line x1="1379.16" y1="960.646" x2="2340.16" y2="-0.353608" stroke="#E6E6E6"/>
<line x1="1397.49" y1="960.646" x2="2358.49" y2="-0.353608" stroke="#E6E6E6"/>
<line x1="1415.81" y1="960.646" x2="2376.81" y2="-0.353608" stroke="#E6E6E6"/>
<line x1="1434.14" y1="960.646" x2="2395.14" y2="-0.353608" stroke="#E6E6E6"/>
<line x1="1452.46" y1="960.646" x2="2413.46" y2="-0.353608" stroke="#E6E6E6"/>
<line x1="1470.79" y1="960.646" x2="2431.79" y2="-0.353608" stroke="#E6E6E6"/>
<line x1="1489.11" y1="960.646" x2="2450.11" y2="-0.353608" stroke="#E6E6E6"/>
<line x1="1507.43" y1="960.646" x2="2468.43" y2="-0.353608" stroke="#E6E6E6"/>
<line x1="1525.76" y1="960.646" x2="2486.76" y2="-0.353608" stroke="#E6E6E6"/>
<line x1="1544.08" y1="960.646" x2="2505.08" y2="-0.353608" stroke="#E6E6E6"/>
<line x1="1562.41" y1="960.646" x2="2523.41" y2="-0.353608" stroke="#E6E6E6"/>
<line x1="1580.73" y1="960.646" x2="2541.73" y2="-0.353608" stroke="#E6E6E6"/>
<line x1="1599.05" y1="960.646" x2="2560.05" y2="-0.353608" stroke="#E6E6E6"/>
<line x1="1617.38" y1="960.646" x2="2578.38" y2="-0.353608" stroke="#E6E6E6"/>
<line x1="1635.7" y1="960.646" x2="2596.7" y2="-0.353608" stroke="#E6E6E6"/>
<line x1="1654.03" y1="960.646" x2="2615.03" y2="-0.353608" stroke="#E6E6E6"/>
<line x1="1672.35" y1="960.646" x2="2633.35" y2="-0.353608" stroke="#E6E6E6"/>
<line x1="1690.68" y1="960.646" x2="2651.68" y2="-0.353608" stroke="#E6E6E6"/>
<line x1="1709" y1="960.646" x2="2670" y2="-0.353608" stroke="#E6E6E6"/>
<line x1="1727.32" y1="960.646" x2="2688.32" y2="-0.353608" stroke="#E6E6E6"/>
<line x1="1745.65" y1="960.646" x2="2706.65" y2="-0.353608" stroke="#E6E6E6"/>
</g>
<defs>
<clipPath id="clip0_24_5">
<rect width="1754" height="961" fill="white"/>
</clipPath>
</defs>
</svg>
